<?xml version="1.0" encoding="utf-8"?>
<!-- Generator: Adobe Illustrator 17.0.0, SVG Export Plug-In . SVG Version: 6.00 Build 0)  -->
<!DOCTYPE svg PUBLIC "-//W3C//DTD SVG 1.1//EN" "http://www.w3.org/Graphics/SVG/1.1/DTD/svg11.dtd">
<svg version="1.1" id="Book" xmlns="http://www.w3.org/2000/svg" xmlns:xlink="http://www.w3.org/1999/xlink" x="0px" y="0px"
	 width="24px" height="24px" viewBox="0 0 24 24" enable-background="new 0 0 24 24" xml:space="preserve">
<rect x="3.125" y="12" fill="none" width="15.469" height="8.25"/>
<g enable-background="new    ">
	<path d="M7.047,14.896c-0.123-0.058-0.244-0.1-0.365-0.127s-0.243-0.041-0.365-0.041c-0.359,0-0.636,0.115-0.83,0.346
		s-0.291,0.561-0.291,0.99v2.016H3.797v-4.375h1.398v0.719c0.18-0.286,0.386-0.495,0.619-0.627S6.327,13.6,6.652,13.6
		c0.047,0,0.098,0.002,0.152,0.006s0.134,0.013,0.238,0.025L7.047,14.896z"/>
	<path d="M12.109,15.881v0.398H8.84c0.034,0.328,0.152,0.574,0.355,0.738s0.487,0.246,0.852,0.246c0.294,0,0.596-0.044,0.904-0.131
		s0.625-0.22,0.951-0.396v1.078c-0.331,0.125-0.662,0.22-0.992,0.283s-0.662,0.096-0.992,0.096c-0.792,0-1.407-0.201-1.846-0.604
		s-0.658-0.967-0.658-1.693c0-0.714,0.215-1.274,0.646-1.684S9.084,13.6,9.84,13.6c0.688,0,1.238,0.207,1.65,0.621
		S12.109,15.188,12.109,15.881z M10.672,15.416c0-0.266-0.078-0.479-0.232-0.643s-0.357-0.244-0.607-0.244
		c-0.271,0-0.491,0.076-0.66,0.229s-0.275,0.372-0.316,0.658H10.672z"/>
	<path d="M16.047,12.002v0.918h-0.773c-0.197,0-0.336,0.036-0.414,0.107s-0.117,0.196-0.117,0.373v0.305h1.195v1h-1.195v3.375
		h-1.398v-3.375h-0.695v-1h0.695V13.4c0-0.477,0.133-0.829,0.398-1.057s0.678-0.342,1.234-0.342H16.047z"/>
</g>
<rect x="10.375" y="4" fill="none" width="13.625" height="7.844"/>
<g enable-background="new    ">
	<path d="M10.891,4.838h1.819v0.659h-0.823v4.031h0.823v0.659h-1.819V4.838z"/>
</g>
<g enable-background="new    ">
	<path d="M16.129,5.008v1.791h1.784v0.807h-1.784v1.791h-0.813V7.605h-1.784V6.799h1.784V5.008H16.129z"/>
</g>
<g enable-background="new    ">
	<path d="M20.435,10.188h-1.819V9.528h0.823V5.497h-0.823V4.838h1.819V10.188z"/>
</g>
</svg>
