<?xml version="1.0" encoding="utf-8"?>
<!-- Generator: Adobe Illustrator 17.0.0, SVG Export Plug-In . SVG Version: 6.00 Build 0)  -->
<!DOCTYPE svg PUBLIC "-//W3C//DTD SVG 1.1//EN" "http://www.w3.org/Graphics/SVG/1.1/DTD/svg11.dtd">
<svg version="1.1" id="Book" xmlns="http://www.w3.org/2000/svg" xmlns:xlink="http://www.w3.org/1999/xlink" x="0px" y="0px"
	 width="24px" height="24px" viewBox="0 0 24 24" enable-background="new 0 0 24 24" xml:space="preserve">
<rect x="3.125" y="12" fill="none" width="15.469" height="8.25"/>
<g enable-background="new    ">
	<path d="M7.332,13.842v1.141c-0.19-0.13-0.381-0.227-0.572-0.289S6.37,14.6,6.164,14.6c-0.391,0-0.695,0.114-0.912,0.342
		s-0.326,0.546-0.326,0.955s0.109,0.728,0.326,0.955s0.521,0.342,0.912,0.342c0.219,0,0.426-0.032,0.623-0.098
		s0.378-0.161,0.545-0.289v1.145c-0.219,0.081-0.441,0.142-0.666,0.182s-0.451,0.061-0.678,0.061c-0.789,0-1.406-0.202-1.852-0.607
		s-0.668-0.968-0.668-1.689s0.223-1.284,0.668-1.689S5.199,13.6,5.988,13.6c0.229,0,0.455,0.021,0.678,0.061
		S7.111,13.761,7.332,13.842z"/>
	<path d="M8.539,12.002h1.398v1.141H8.539V12.002z M8.539,13.705h1.398v4.375H8.539V13.705z"/>
	<path d="M12.809,12.463v1.242h1.441v1h-1.441v1.855c0,0.203,0.041,0.341,0.121,0.412s0.24,0.107,0.48,0.107h0.719v1H12.93
		c-0.552,0-0.943-0.115-1.174-0.346s-0.346-0.622-0.346-1.174v-1.855h-0.695v-1h0.695v-1.242H12.809z"/>
	<path d="M19.473,15.881v0.398h-3.27c0.033,0.328,0.152,0.574,0.355,0.738s0.486,0.246,0.852,0.246c0.295,0,0.596-0.044,0.904-0.131
		s0.625-0.22,0.951-0.396v1.078c-0.33,0.125-0.662,0.22-0.992,0.283s-0.662,0.096-0.992,0.096c-0.791,0-1.406-0.201-1.846-0.604
		s-0.658-0.967-0.658-1.693c0-0.714,0.215-1.274,0.646-1.684s1.023-0.613,1.779-0.613c0.688,0,1.238,0.207,1.65,0.621
		S19.473,15.188,19.473,15.881z M18.035,15.416c0-0.266-0.078-0.479-0.232-0.643s-0.357-0.244-0.607-0.244
		c-0.271,0-0.49,0.076-0.66,0.229s-0.275,0.372-0.316,0.658H18.035z"/>
</g>
<rect x="10.375" y="4" fill="none" width="13.625" height="7.844"/>
<g enable-background="new    ">
	<path d="M10.891,4.838h1.819v0.659h-0.823v4.031h0.823v0.659h-1.819V4.838z"/>
</g>
<g enable-background="new    ">
	<path d="M16.129,5.008v1.791h1.784v0.807h-1.784v1.791h-0.813V7.605h-1.784V6.799h1.784V5.008H16.129z"/>
</g>
<g enable-background="new    ">
	<path d="M20.435,10.188h-1.819V9.528h0.823V5.497h-0.823V4.838h1.819V10.188z"/>
</g>
</svg>
